<svg xmlns="http://www.w3.org/2000/svg" width="512" height="512" viewBox="0 0 512 512">
  <defs>
    <linearGradient id="circle-bg" x1="0" y1="0" x2="1" y2="1">
      <stop offset="0" stop-color="#1d4ed8" />
      <stop offset="1" stop-color="#0ea5e9" />
    </linearGradient>
    <linearGradient id="circle-split" x1="0" y1="1" x2="1" y2="0">
      <stop offset="0" stop-color="#0b3aa0" stop-opacity="0.55" />
      <stop offset="1" stop-color="#0ea5e9" stop-opacity="0" />
    </linearGradient>
    <clipPath id="clip-circle">
      <circle cx="256" cy="256" r="240" />
    </clipPath>
  </defs>

  <rect width="512" height="512" fill="none" />

  <g clip-path="url(#clip-circle)">
    <circle cx="256" cy="256" r="260" fill="url(#circle-bg)" />
    <circle cx="256" cy="256" r="260" fill="url(#circle-split)" />
  </g>

  <g transform="translate(256 256)" fill="#fff">
    <g>
      <rect x="-12" y="-220" width="24" height="40" rx="6" />
      <rect x="-12" y="-220" width="24" height="40" rx="6" transform="rotate(30)" />
      <rect x="-12" y="-220" width="24" height="40" rx="6" transform="rotate(60)" />
      <rect x="-12" y="-220" width="24" height="40" rx="6" transform="rotate(90)" />
      <rect x="-12" y="-220" width="24" height="40" rx="6" transform="rotate(120)" />
      <rect x="-12" y="-220" width="24" height="40" rx="6" transform="rotate(150)" />
      <rect x="-12" y="-220" width="24" height="40" rx="6" transform="rotate(180)" />
      <rect x="-12" y="-220" width="24" height="40" rx="6" transform="rotate(210)" />
      <rect x="-12" y="-220" width="24" height="40" rx="6" transform="rotate(240)" />
      <rect x="-12" y="-220" width="24" height="40" rx="6" transform="rotate(270)" />
      <rect x="-12" y="-220" width="24" height="40" rx="6" transform="rotate(300)" />
      <rect x="-12" y="-220" width="24" height="40" rx="6" transform="rotate(330)" />
    </g>

    <circle r="188" fill="none" stroke="#fff" stroke-width="26" />

    <path
      d="M0 -148
         C-58 -148 -116 -132 -150 -108
         V-24
         C-150 66 -82 126 0 158
         C82 126 150 66 150 -24
         V-108
         C116 -132 58 -148 0 -148 Z"
      fill="rgba(0,0,0,0.04)"
      stroke="#fff"
      stroke-width="14"
      stroke-linejoin="round"
    />

    <path
      d="M0 -132
         C-50 -132 -104 -118 -132 -98
         V-30
         C-132 52 -74 108 0 136
         C74 108 132 52 132 -30
         V-98
         C104 -118 50 -132 0 -132 Z"
      fill="rgba(255,255,255,0.18)"
    />

    <g font-family="system-ui, -apple-system, Segoe UI, Roboto, Helvetica, Arial, sans-serif" font-weight="800" text-anchor="middle">
      <text x="-48" y="36" font-size="136">T</text>
      <text x="60" y="36" font-size="136">A</text>
    </g>
  </g>
</svg>
